<?xml version="1.0" standalone="no"?>
<!DOCTYPE svg PUBLIC "-//W3C//DTD SVG 20010904//EN"
 "http://www.w3.org/TR/2001/REC-SVG-20010904/DTD/svg10.dtd">
<svg version="1.0" xmlns="http://www.w3.org/2000/svg"
 width="64.000000pt" height="64.000000pt" viewBox="0 0 64.000000 64.000000"
 preserveAspectRatio="xMidYMid meet">

<g transform="translate(0.000000,64.000000) scale(0.100000,-0.100000)"
fill="#fff" stroke="none">
<path d="M22 558 c-15 -15 -16 -132 -2 -159 29 -54 121 -61 160 -12 17 22 20
38 18 96 -2 54 -7 72 -20 81 -33 20 -53 -4 -56 -68 -2 -41 -7 -56 -17 -56 -11
0 -15 13 -15 53 0 54 -12 77 -40 77 -9 0 -21 -5 -28 -12z"/>
<path d="M240 551 c-16 -31 -13 -153 6 -179 37 -53 74 -8 74 91 0 80 -11 107
-45 107 -14 0 -29 -8 -35 -19z"/>
<path d="M350 415 c-23 -28 9 -72 45 -59 36 14 24 74 -15 74 -10 0 -23 -7 -30
-15z m48 -23 c2 -7 -6 -12 -17 -12 -21 0 -27 11 -14 24 9 9 26 2 31 -12z"/>
<path d="M222 278 c-7 -7 -12 -41 -12 -81 0 -62 3 -71 29 -98 41 -40 91 -40
132 1 28 28 30 33 27 101 -2 55 -7 74 -20 83 -32 20 -52 -4 -58 -68 -6 -71
-24 -74 -28 -4 -2 29 -8 58 -14 65 -13 16 -40 17 -56 1z m48 -71 c6 -64 21
-87 48 -71 12 8 19 29 22 70 4 44 9 59 20 59 12 0 16 -15 18 -67 3 -58 0 -69
-19 -87 -31 -28 -74 -27 -104 4 -21 20 -25 34 -25 83 0 32 3 62 7 66 16 16 28
-5 33 -57z"/>
<path d="M452 268 c-16 -16 -15 -35 5 -69 16 -26 16 -29 0 -47 -21 -23 -22
-46 -2 -62 16 -13 65 -6 65 10 0 15 19 12 37 -6 19 -19 52 -15 67 8 8 13 6 25
-7 47 -16 28 -16 31 0 60 31 54 -17 94 -61 52 l-23 -21 -18 20 c-20 23 -45 26
-63 8z m58 -28 c6 -11 16 -20 23 -20 7 0 20 9 30 20 20 24 36 26 44 4 3 -8 -4
-25 -17 -40 l-23 -24 21 -23 c44 -46 13 -80 -33 -37 l-22 20 -18 -20 c-22 -24
-55 -26 -55 -3 0 9 10 27 22 40 l21 23 -23 24 c-24 26 -22 56 4 56 9 0 20 -9
26 -20z"/>
<path d="M124 126 c-12 -31 0 -51 31 -51 27 0 30 3 30 30 0 25 -4 30 -28 33
-17 2 -29 -2 -33 -12z m46 -21 c0 -8 -7 -15 -15 -15 -8 0 -15 7 -15 15 0 8 7
15 15 15 8 0 15 -7 15 -15z"/>
</g>
</svg>
